<svg width="134" height="24" viewBox="0 0 134 24" fill="none" xmlns="http://www.w3.org/2000/svg">
<path fill-rule="evenodd" clip-rule="evenodd" d="M0 12C0 5.82641 5.03814 0.821701 11.253 0.821701H26.2569C27.4999 0.821701 28.5075 1.82264 28.5075 3.05737C28.5075 4.29209 27.4999 5.29304 26.2569 5.29304H11.253C7.52407 5.29304 4.50119 8.29587 4.50119 12C4.50119 15.7042 7.52407 18.707 11.253 18.707H26.2569C27.4999 18.707 28.5075 19.708 28.5075 20.9427C28.5075 22.1774 27.4999 23.1784 26.2569 23.1784H11.253C5.03813 23.1784 0 18.1737 0 12Z" fill="url(#paint0_linear_3013_4216)"/>
<path d="M28.5075 12C28.5075 13.2348 27.4999 14.2357 26.2569 14.2357C25.014 14.2357 24.0064 13.2348 24.0064 12C24.0064 10.7653 25.014 9.76437 26.2569 9.76437C27.4999 9.76437 28.5075 10.7653 28.5075 12Z" fill="#0FF0D9"/>
<path d="M114.15 18V6H116.662V7.272C117.081 6.776 117.592 6.384 118.196 6.096C118.809 5.808 119.469 5.664 120.178 5.664C121.039 5.664 121.833 5.872 122.557 6.288C123.282 6.696 123.858 7.24 124.285 7.92C124.712 7.24 125.279 6.696 125.988 6.288C126.705 5.872 127.494 5.664 128.356 5.664C129.25 5.664 130.063 5.88 130.796 6.312C131.529 6.744 132.113 7.324 132.548 8.052C132.983 8.78 133.2 9.588 133.2 10.476V18H130.687V11.112C130.687 10.584 130.558 10.1 130.301 9.66C130.043 9.22 129.697 8.864 129.262 8.592C128.827 8.32 128.344 8.184 127.812 8.184C127.281 8.184 126.798 8.312 126.363 8.568C125.928 8.824 125.581 9.172 125.324 9.612C125.066 10.052 124.937 10.552 124.937 11.112V18H122.425V11.112C122.425 10.552 122.296 10.052 122.038 9.612C121.78 9.172 121.43 8.824 120.987 8.568C120.552 8.312 120.069 8.184 119.537 8.184C119.014 8.184 118.531 8.32 118.088 8.592C117.653 8.864 117.307 9.22 117.049 9.66C116.791 10.1 116.662 10.584 116.662 11.112V18H114.15Z" fill="white"/>
<path d="M106.181 18.312C105.07 18.312 104.055 18.028 103.137 17.46C102.227 16.892 101.498 16.132 100.951 15.18C100.411 14.22 100.141 13.16 100.141 12C100.141 11.12 100.298 10.3 100.613 9.54C100.927 8.772 101.357 8.1 101.905 7.524C102.461 6.94 103.105 6.484 103.838 6.156C104.571 5.828 105.352 5.664 106.181 5.664C107.108 5.664 107.957 5.856 108.73 6.24C109.504 6.616 110.164 7.14 110.712 7.812C111.259 8.476 111.662 9.244 111.92 10.116C112.177 10.98 112.254 11.9 112.149 12.876H102.835C102.94 13.428 103.141 13.928 103.439 14.376C103.745 14.816 104.132 15.164 104.599 15.42C105.074 15.676 105.602 15.808 106.181 15.816C106.794 15.816 107.349 15.664 107.849 15.36C108.356 15.056 108.771 14.636 109.093 14.1L111.642 14.688C111.158 15.752 110.43 16.624 109.455 17.304C108.481 17.976 107.389 18.312 106.181 18.312ZM102.751 10.968H109.612C109.532 10.392 109.326 9.872 108.996 9.408C108.674 8.936 108.267 8.564 107.776 8.292C107.293 8.012 106.761 7.872 106.181 7.872C105.61 7.872 105.078 8.008 104.587 8.28C104.104 8.552 103.701 8.924 103.379 9.396C103.065 9.86 102.855 10.384 102.751 10.968Z" fill="white"/>
<path d="M92.6555 18V6H95.1682V7.272C95.587 6.776 96.1024 6.384 96.7144 6.096C97.3265 5.808 97.9869 5.664 98.6956 5.664C99.1466 5.664 99.5935 5.724 100.036 5.844L99.0338 8.364C98.7197 8.244 98.4057 8.184 98.0916 8.184C97.56 8.184 97.0728 8.316 96.6299 8.58C96.1869 8.836 95.8326 9.184 95.5668 9.624C95.3011 10.064 95.1682 10.552 95.1682 11.088V18H92.6555Z" fill="white"/>
<path d="M84.6874 18.312C83.576 18.312 82.5613 18.028 81.6432 17.46C80.7331 16.892 80.0043 16.132 79.4567 15.18C78.9171 14.22 78.6473 13.16 78.6473 12C78.6473 11.12 78.8043 10.3 79.1184 9.54C79.4325 8.772 79.8634 8.1 80.411 7.524C80.9667 6.94 81.611 6.484 82.3438 6.156C83.0767 5.828 83.8579 5.664 84.6874 5.664C85.6135 5.664 86.4631 5.856 87.2363 6.24C88.0094 6.616 88.6698 7.14 89.2174 7.812C89.765 8.476 90.1677 9.244 90.4254 10.116C90.6831 10.98 90.7596 11.9 90.6549 12.876H81.3412C81.4459 13.428 81.6472 13.928 81.9452 14.376C82.2512 14.816 82.6378 15.164 83.1049 15.42C83.58 15.676 84.1075 15.808 84.6874 15.816C85.2994 15.816 85.8551 15.664 86.3544 15.36C86.8618 15.056 87.2765 14.636 87.5987 14.1L90.1476 14.688C89.6644 15.752 88.9355 16.624 87.9611 17.304C86.9866 17.976 85.8954 18.312 84.6874 18.312ZM81.2566 10.968H88.1181C88.0376 10.392 87.8322 9.872 87.502 9.408C87.1799 8.936 86.7732 8.564 86.2819 8.292C85.7987 8.012 85.2672 7.872 84.6874 7.872C84.1156 7.872 83.584 8.008 83.0928 8.28C82.6096 8.552 82.2069 8.924 81.8848 9.396C81.5707 9.86 81.3613 10.384 81.2566 10.968Z" fill="white"/>
<path d="M77.1967 10.476V18H74.6841V11.088C74.6841 10.552 74.5512 10.064 74.2854 9.624C74.0277 9.184 73.6774 8.836 73.2345 8.58C72.7996 8.316 72.3083 8.184 71.7607 8.184C71.2292 8.184 70.7419 8.316 70.299 8.58C69.856 8.836 69.5017 9.184 69.2359 9.624C68.9702 10.064 68.8373 10.552 68.8373 11.088V18H66.3246V0H68.8373V7.272C69.2561 6.776 69.7715 6.384 70.3835 6.096C70.9956 5.808 71.656 5.664 72.3647 5.664C73.2586 5.664 74.072 5.88 74.8049 6.312C75.5377 6.744 76.1176 7.324 76.5444 8.052C76.9793 8.78 77.1967 9.588 77.1967 10.476Z" fill="white"/>
<path d="M54.3978 24H51.8851V6H54.3978V7.764C54.8004 7.148 55.3159 6.648 55.944 6.264C56.5722 5.88 57.3131 5.688 58.1668 5.688C59.0446 5.688 59.866 5.852 60.6311 6.18C61.4042 6.508 62.0807 6.964 62.6606 7.548C63.2404 8.124 63.6954 8.792 64.0256 9.552C64.3558 10.312 64.5209 11.128 64.5209 12C64.5209 12.872 64.3558 13.692 64.0256 14.46C63.6954 15.228 63.2404 15.904 62.6606 16.488C62.0807 17.064 61.4042 17.516 60.6311 17.844C59.866 18.172 59.0446 18.336 58.1668 18.336C57.3131 18.336 56.5722 18.144 55.944 17.76C55.3159 17.368 54.8004 16.868 54.3978 16.26V24ZM58.1426 8.1C57.442 8.1 56.8259 8.276 56.2943 8.628C55.7628 8.98 55.3481 9.452 55.0501 10.044C54.7521 10.628 54.6031 11.28 54.6031 12C54.6031 12.72 54.7521 13.376 55.0501 13.968C55.3481 14.56 55.7628 15.032 56.2943 15.384C56.8259 15.736 57.442 15.912 58.1426 15.912C58.8352 15.912 59.4714 15.74 60.0513 15.396C60.6311 15.044 61.0942 14.572 61.4405 13.98C61.7868 13.388 61.9599 12.728 61.9599 12C61.9599 11.288 61.7868 10.636 61.4405 10.044C61.1022 9.452 60.6432 8.98 60.0633 8.628C59.4835 8.276 58.8433 8.1 58.1426 8.1Z" fill="white"/>
<path d="M47.6136 6H50.1263V18H47.6136V6ZM48.8941 4.26C48.5076 4.26 48.1854 4.136 47.9277 3.888C47.67 3.64 47.5412 3.328 47.5412 2.952C47.5412 2.584 47.67 2.276 47.9277 2.028C48.1854 1.772 48.5035 1.644 48.8821 1.644C49.2525 1.644 49.5666 1.772 49.8243 2.028C50.082 2.276 50.2109 2.584 50.2109 2.952C50.2109 3.328 50.082 3.64 49.8243 3.888C49.5746 4.136 49.2646 4.26 48.8941 4.26Z" fill="white"/>
<path d="M43.5634 14.592L45.8103 15.804C45.2627 16.564 44.5661 17.172 43.7204 17.628C42.8829 18.084 41.9729 18.312 40.9903 18.312C39.879 18.312 38.8642 18.028 37.9461 17.46C37.0361 16.892 36.3073 16.132 35.7596 15.18C35.2201 14.22 34.9503 13.16 34.9503 12C34.9503 11.12 35.1073 10.3 35.4214 9.54C35.7355 8.772 36.1663 8.1 36.714 7.524C37.2697 6.94 37.9139 6.484 38.6468 6.156C39.3797 5.828 40.1608 5.664 40.9903 5.664C41.9729 5.664 42.8829 5.892 43.7204 6.348C44.5661 6.804 45.2627 7.416 45.8103 8.184L43.5634 9.396C43.2252 8.996 42.8305 8.692 42.3796 8.484C41.9286 8.268 41.4655 8.16 40.9903 8.16C40.33 8.16 39.73 8.34 39.1904 8.7C38.6589 9.052 38.2361 9.52 37.922 10.104C37.616 10.68 37.4629 11.312 37.4629 12C37.4629 12.68 37.62 13.312 37.9341 13.896C38.2481 14.472 38.671 14.936 39.2025 15.288C39.7421 15.64 40.338 15.816 40.9903 15.816C41.4897 15.816 41.9648 15.704 42.4158 15.48C42.8668 15.256 43.2493 14.96 43.5634 14.592Z" fill="white"/>
<defs>
<linearGradient id="paint0_linear_3013_4216" x1="66.6" y1="2.4" x2="66.6" y2="21.6" gradientUnits="userSpaceOnUse">
<stop stop-color="#0FF0D9"/>
<stop offset="1" stop-color="#B062E8"/>
</linearGradient>
</defs>
</svg>
