<svg width="24" height="24" viewBox="0 0 24 24" fill="none" xmlns="http://www.w3.org/2000/svg">
<path d="M2.24998 12.0001C2.25196 10.2104 2.96376 8.49471 4.2292 7.22927C5.49464 5.96383 7.21038 5.25204 8.99998 5.25005H19.1897L18.2194 4.28068C18.0786 4.13995 17.9996 3.94907 17.9996 3.75005C17.9996 3.55103 18.0786 3.36016 18.2194 3.21943C18.3601 3.0787 18.551 2.99963 18.75 2.99963C18.949 2.99963 19.1399 3.0787 19.2806 3.21943L21.5306 5.46943C21.6003 5.53908 21.6557 5.6218 21.6934 5.71285C21.7311 5.80389 21.7506 5.90149 21.7506 6.00005C21.7506 6.09861 21.7311 6.19621 21.6934 6.28726C21.6557 6.3783 21.6003 6.46102 21.5306 6.53068L19.2806 8.78068C19.1399 8.92141 18.949 9.00047 18.75 9.00047C18.551 9.00047 18.3601 8.92141 18.2194 8.78068C18.0786 8.63995 17.9996 8.44907 17.9996 8.25005C17.9996 8.05103 18.0786 7.86016 18.2194 7.71943L19.1897 6.75005H8.99998C7.60805 6.75154 6.27356 7.30514 5.28931 8.28938C4.30507 9.27363 3.75147 10.6081 3.74998 12.0001C3.74998 12.199 3.67096 12.3897 3.53031 12.5304C3.38966 12.671 3.19889 12.7501 2.99998 12.7501C2.80107 12.7501 2.6103 12.671 2.46965 12.5304C2.329 12.3897 2.24998 12.199 2.24998 12.0001ZM21 11.2501C20.8011 11.2501 20.6103 11.3291 20.4696 11.4697C20.329 11.6104 20.25 11.8011 20.25 12.0001C20.2485 13.392 19.6949 14.7265 18.7106 15.7107C17.7264 16.695 16.3919 17.2486 15 17.2501H4.81029L5.7806 16.2807C5.85029 16.211 5.90556 16.1283 5.94327 16.0372C5.98099 15.9462 6.0004 15.8486 6.0004 15.7501C6.0004 15.6515 5.98099 15.5539 5.94327 15.4629C5.90556 15.3718 5.85029 15.2891 5.7806 15.2194C5.71092 15.1497 5.6282 15.0945 5.53715 15.0568C5.44611 15.019 5.34853 14.9996 5.24998 14.9996C5.15143 14.9996 5.05385 15.019 4.96281 15.0568C4.87176 15.0945 4.78904 15.1497 4.71935 15.2194L2.46935 17.4694C2.39962 17.5391 2.3443 17.6218 2.30656 17.7128C2.26882 17.8039 2.24939 17.9015 2.24939 18.0001C2.24939 18.0986 2.26882 18.1962 2.30656 18.2873C2.3443 18.3783 2.39962 18.461 2.46935 18.5307L4.71935 20.7807C4.78904 20.8504 4.87176 20.9056 4.96281 20.9433C5.05385 20.9811 5.15143 21.0005 5.24998 21.0005C5.34853 21.0005 5.44611 20.9811 5.53715 20.9433C5.6282 20.9056 5.71092 20.8504 5.7806 20.7807C5.85029 20.711 5.90556 20.6283 5.94327 20.5372C5.98099 20.4462 6.0004 20.3486 6.0004 20.2501C6.0004 20.1515 5.98099 20.0539 5.94327 19.9629C5.90556 19.8718 5.85029 19.7891 5.7806 19.7194L4.81029 18.7501H15C16.7896 18.7481 18.5053 18.0363 19.7708 16.7708C21.0362 15.5054 21.748 13.7897 21.75 12.0001C21.75 11.8011 21.671 11.6104 21.5303 11.4697C21.3897 11.3291 21.1989 11.2501 21 11.2501Z" fill="#FAFAFA"/>
</svg>
