<svg width="17" height="14" viewBox="0 0 17 14" fill="none" xmlns="http://www.w3.org/2000/svg">
<path d="M0.25 2.30982C0.25 1.4373 0.957318 0.72998 1.82984 0.72998H14.7154C15.5879 0.72998 16.2952 1.4373 16.2952 2.30982V11.6901C16.2952 12.5626 15.5879 13.27 14.7154 13.27H1.82984C0.957318 13.27 0.25 12.5626 0.25 11.6901V2.30982Z" fill="url(#paint0_linear_28_3977)"/>
<g filter="url(#filter0_d_28_3977)">
<path d="M11.9014 5.94031C11.9014 5.62675 12.1556 5.37256 12.4691 5.37256H16.1823C16.4959 5.37256 16.7501 5.62675 16.7501 5.94031V8.05987C16.7501 8.37343 16.4959 8.62762 16.1823 8.62762H12.4691C12.1556 8.62762 11.9014 8.37343 11.9014 8.05987V5.94031Z" fill="url(#paint1_radial_28_3977)"/>
</g>
<path d="M13.3876 7.00274C13.3876 7.28364 13.1599 7.51135 12.879 7.51135C12.5981 7.51135 12.3704 7.28364 12.3704 7.00274C12.3704 6.72185 12.5981 6.49414 12.879 6.49414C13.1599 6.49414 13.3876 6.72185 13.3876 7.00274Z" fill="url(#paint2_radial_28_3977)"/>
<defs>
<filter id="filter0_d_28_3977" x="11.6014" y="5.37256" width="5.14863" height="3.55488" filterUnits="userSpaceOnUse" color-interpolation-filters="sRGB">
<feFlood flood-opacity="0" result="BackgroundImageFix"/>
<feColorMatrix in="SourceAlpha" type="matrix" values="0 0 0 0 0 0 0 0 0 0 0 0 0 0 0 0 0 0 127 0" result="hardAlpha"/>
<feOffset dx="-0.15" dy="0.15"/>
<feGaussianBlur stdDeviation="0.075"/>
<feComposite in2="hardAlpha" operator="out"/>
<feColorMatrix type="matrix" values="0 0 0 0 0.4228 0 0 0 0 0.3276 0 0 0 0 0.1372 0 0 0 0.71 0"/>
<feBlend mode="normal" in2="BackgroundImageFix" result="effect1_dropShadow_28_3977"/>
<feBlend mode="normal" in="SourceGraphic" in2="effect1_dropShadow_28_3977" result="shape"/>
</filter>
<linearGradient id="paint0_linear_28_3977" x1="8.27262" y1="-2.11693" x2="8.27262" y2="13.7105" gradientUnits="userSpaceOnUse">
<stop stop-color="#CDAB66"/>
<stop offset="0.257109" stop-color="#C9A459"/>
<stop offset="0.722109" stop-color="#9E7A33"/>
<stop offset="1" stop-color="#84662B"/>
</linearGradient>
<radialGradient id="paint1_radial_28_3977" cx="0" cy="0" r="1" gradientUnits="userSpaceOnUse" gradientTransform="translate(13.5001 6.49951) rotate(80.7971) scale(3.89049 6.47988)">
<stop offset="0.162109" stop-color="#C29C53"/>
<stop offset="0.619152" stop-color="#9E7A33"/>
<stop offset="0.822109" stop-color="#7B5F28"/>
<stop offset="0.967109" stop-color="#6C5423"/>
</radialGradient>
<radialGradient id="paint2_radial_28_3977" cx="0" cy="0" r="1" gradientUnits="userSpaceOnUse" gradientTransform="translate(12.879 7.00274) rotate(90) scale(0.627278)">
<stop offset="0.127109" stop-color="#BCBCC1"/>
<stop offset="0.562109" stop-color="#B0B0B6"/>
<stop offset="0.732109" stop-color="#A5A5AC"/>
<stop offset="0.887109" stop-color="#9B9BA2"/>
</radialGradient>
</defs>
</svg>
